<svg xmlns="http://www.w3.org/2000/svg" width="283.47" height="306.73" viewBox="6.032 -112.889 283.467 306.727"><path fill="#B7E73C" d="M168.74-54.1c-6.74 26.2-30.07 42.8-52.16 37.14-22.05-5.7-34.48-31.54-27.74-57.7 6.7-26.17 30.06-42.82 52.12-37.1 22.1 5.7 34.52 31.48 27.78 57.65zM258.74-29.02c-6.67 25.87-29.76 42.3-51.6 36.7-21.78-5.64-34.1-31.15-27.42-57.02 6.64-25.86 29.8-42.3 51.56-36.67 21.8 5.58 34.07 31.1 27.46 56.98zM214.16 42.38c10.56-23.06 34.92-34.58 54.4-25.63 19.48 8.9 26.64 34.88 16.05 57.96-10.54 23.1-34.9 34.56-54.4 25.65-19.45-8.97-26.66-34.9-16.03-57.97zM18.65 112.93C22.4 85.4 51.32 84 70.53 65.83 95.17 42.6 113.4 33.8 144 41.7c30.62 7.85 42.53 20.18 47.25 53.17 5.08 35.27 28.62 45.66 23.36 70.93-11.7 56.44-65.8 12.25-111.5.48-43.47-11.18-91.4-1.6-84.45-53.33zM6.04.73c.36-26.7 18.83-48.12 41.4-47.84C70-46.84 88-25 87.62 1.77 87.3 28.5 68.76 49.92 46.24 49.65 23.68 49.37 5.68 27.5 6.02.73z"/></svg>